<?xml version="1.0" encoding="UTF-8"?>
<svg id="Layer_1" xmlns="http://www.w3.org/2000/svg" version="1.1" viewBox="0 0 264 242">
  <!-- Generator: Adobe Illustrator 30.5.1, SVG Export Plug-In . SVG Version: 2.1.4 Build 3)  -->
  <defs>
    <style>
      .st0 {
        fill: #fff;
      }

      .st1 {
        fill: none;
        stroke: #fff;
        stroke-linecap: round;
        stroke-linejoin: round;
        stroke-width: 16px;
      }

      .st2 {
        opacity: .6;
      }
    </style>
  </defs>
  <g>
    <path class="st1" d="M18,18v43c0,18,14,32,32,32h30"/>
    <path class="st1" d="M18,121h66"/>
    <path class="st1" d="M18,224v-43c0-18,14-32,32-32h30"/>
  </g>
  <g>
    <circle class="st0" cx="18" cy="18" r="18"/>
    <circle class="st0" cx="18" cy="121" r="18"/>
    <circle class="st0" cx="18" cy="224" r="18"/>
  </g>
  <g class="st2">
    <circle class="st0" cx="212" cy="66" r="35"/>
    <path class="st0" d="M170,182c2-54,11-89,42-89s48,35,52,89c-29,17-64,17-94,0Z"/>
  </g>
  <g>
    <circle class="st0" cx="144" cy="72" r="42"/>
    <path class="st0" d="M86,216c3-69,17-112,58-112s57,43,61,112c-38,22-81,22-119,0Z"/>
  </g>
</svg>