<svg id="Layer_1" data-name="Layer 1" xmlns="http://www.w3.org/2000/svg" viewBox="0 0 370 350"><path d="M168.45,303.43a38.67,38.67,0,0,1,0,8.78c0,.17-.06.35-.08.52-.16,1.33-.39,2.63-.67,3.91,0,0,0,.06,0,.09h95.63a.28.28,0,0,1,0-.09,38.45,38.45,0,0,1-.68-3.91c0-.17-.06-.35-.08-.52a38.67,38.67,0,0,1,0-8.78c0-.17.06-.34.08-.52a38.93,38.93,0,0,1,.68-3.91.28.28,0,0,1,0-.09H167.68V299a39.63,39.63,0,0,1,.68,3.92C168.39,303.1,168.43,303.27,168.45,303.43Z" fill="#fff"/><path d="M115.53,269.7c.73-.25,1.47-.47,2.22-.67s1.22-.34,1.83-.48c.81-.18,1.62-.31,2.44-.45.59-.09,1.17-.2,1.76-.26.89-.11,1.79-.15,2.7-.2.44,0,.88-.08,1.32-.09l-9.33-35.61a3.79,3.79,0,0,1,3.67-4.75H298.82a22.73,22.73,0,0,0,22-16.93l30-113.83a9,9,0,0,0-1.56-7.71,8.83,8.83,0,0,0-7.06-3.47H83a3.81,3.81,0,0,1-3.67-2.83L71.43,58.33A28.63,28.63,0,0,0,43.75,37H8.9a8.91,8.91,0,0,0,0,17.82H43.75A10.81,10.81,0,0,1,54.2,62.84l56.29,208.91c.37-.18.77-.32,1.15-.49.67-.31,1.34-.61,2-.88S114.91,269.91,115.53,269.7Z" fill="#fff"/><circle cx="128.42" cy="307.82" r="32.7" fill="#fff"/><circle cx="302.57" cy="307.82" r="32.7" fill="#fff"/></svg>