<?xml version="1.0" encoding="utf-8"?>
<!-- Generator: Adobe Illustrator 27.3.1, SVG Export Plug-In . SVG Version: 6.00 Build 0)  -->
<svg version="1.1" id="Layer_1" xmlns="http://www.w3.org/2000/svg" xmlns:xlink="http://www.w3.org/1999/xlink" x="0px" y="0px"
	 viewBox="0 0 2000 500" style="enable-background:new 0 0 2000 500;" xml:space="preserve">
<style type="text/css">
	.st0{fill:#FFFFFF;}
</style>
<polygon class="st0" points="99.04,448.64 33.01,448.64 0,505.82 33.01,563 99.04,563 132.06,505.82 "/>
<polygon class="st0" points="197.98,391.45 131.95,391.45 98.93,448.64 131.95,505.82 197.98,505.82 230.99,448.64 "/>
<polygon class="st0" points="296.91,448.64 230.88,448.64 197.87,505.82 230.88,563 296.91,563 329.92,505.82 "/>
<polygon class="st0" points="395.84,391.45 329.82,391.45 296.8,448.64 329.82,505.82 395.84,505.82 428.86,448.64 "/>
<polygon class="st0" points="494.78,448.64 428.75,448.64 395.74,505.82 428.75,563 494.78,563 527.79,505.82 "/>
<polygon class="st0" points="593.71,391.45 527.68,391.45 494.67,448.64 527.68,505.82 593.71,505.82 626.73,448.64 "/>
<polygon class="st0" points="688.11,448.64 622.08,448.64 589.06,505.82 622.08,563 688.11,563 721.12,505.82 "/>
<polygon class="st0" points="787.04,391.45 721.01,391.45 688,448.64 721.01,505.82 787.04,505.82 820.05,448.64 "/>
<polygon class="st0" points="884.16,448.64 818.13,448.64 785.12,505.82 818.13,563 884.16,563 917.17,505.82 "/>
<polygon class="st0" points="1082.03,448.64 1016,448.64 982.99,505.82 1016,563 1082.03,563 1115.04,505.82 "/>
<polygon class="st0" points="1180.96,391.45 1114.93,391.45 1081.92,448.64 1114.93,505.82 1180.96,505.82 1213.97,448.64 "/>
<polygon class="st0" points="1279.89,448.64 1213.87,448.64 1180.85,505.82 1213.87,563 1279.89,563 1312.91,505.82 "/>
<polygon class="st0" points="1477.76,448.64 1411.73,448.64 1378.72,505.82 1411.73,563 1477.76,563 1510.78,505.82 "/>
<polygon class="st0" points="1576.7,391.45 1510.67,391.45 1477.65,448.64 1510.67,505.82 1576.7,505.82 1609.71,448.64 "/>
<polygon class="st0" points="1672.91,448.64 1606.88,448.64 1573.87,505.82 1606.88,563 1672.91,563 1705.92,505.82 "/>
<polygon class="st0" points="1868.05,448.64 1802.02,448.64 1769.01,505.82 1802.02,563 1868.05,563 1901.07,505.82 "/>
<polygon class="st0" points="395.84,278.91 329.82,278.91 296.8,336.09 329.82,393.27 395.84,393.27 428.86,336.09 "/>
<polygon class="st0" points="688.11,336.09 622.08,336.09 589.06,393.27 622.08,450.45 688.11,450.45 721.12,393.27 "/>
<polygon class="st0" points="787.04,278.91 721.01,278.91 688,336.09 721.01,393.27 787.04,393.27 820.05,336.09 "/>
<polygon class="st0" points="884.16,336.09 818.13,336.09 785.12,393.27 818.13,450.45 884.16,450.45 917.17,393.27 "/>
<polygon class="st0" points="983.09,278.91 917.07,278.91 884.05,336.09 917.07,393.27 983.09,393.27 1016.11,336.09 "/>
<polygon class="st0" points="1082.03,336.09 1016,336.09 982.99,393.27 1016,450.45 1082.03,450.45 1115.04,393.27 "/>
<polygon class="st0" points="1279.89,336.09 1213.87,336.09 1180.85,393.27 1213.87,450.45 1279.89,450.45 1312.91,393.27 "/>
<polygon class="st0" points="1378.83,278.91 1312.8,278.91 1279.79,336.09 1312.8,393.27 1378.83,393.27 1411.84,336.09 "/>
<polygon class="st0" points="1477.76,336.09 1411.73,336.09 1378.72,393.27 1411.73,450.45 1477.76,450.45 1510.78,393.27 "/>
<polygon class="st0" points="1672.91,336.09 1606.88,336.09 1573.87,393.27 1606.88,450.45 1672.91,450.45 1705.92,393.27 "/>
<polygon class="st0" points="1771.84,278.91 1705.81,278.91 1672.8,336.09 1705.81,393.27 1771.84,393.27 1804.86,336.09 "/>
<polygon class="st0" points="1868.05,336.09 1802.02,336.09 1769.01,393.27 1802.02,450.45 1868.05,450.45 1901.07,393.27 "/>
<polygon class="st0" points="1966.99,278.91 1900.96,278.91 1867.94,336.09 1900.96,393.27 1966.99,393.27 2000,336.09 "/>
<polygon class="st0" points="197.98,164.54 131.95,164.54 98.93,221.72 131.95,278.91 197.98,278.91 230.99,221.72 "/>
<polygon class="st0" points="494.78,221.72 428.75,221.72 395.74,278.91 428.75,336.09 494.78,336.09 527.79,278.91 "/>
<polygon class="st0" points="1279.89,221.72 1213.87,221.72 1180.85,278.91 1213.87,336.09 1279.89,336.09 1312.91,278.91 "/>
<polygon class="st0" points="1477.76,221.72 1411.73,221.72 1378.72,278.91 1411.73,336.09 1477.76,336.09 1510.78,278.91 "/>
<polygon class="st0" points="1576.7,164.54 1510.67,164.54 1477.65,221.72 1510.67,278.91 1576.7,278.91 1609.71,221.72 "/>
<polygon class="st0" points="1672.91,221.72 1606.88,221.72 1573.87,278.91 1606.88,336.09 1672.91,336.09 1705.92,278.91 "/>
<polygon class="st0" points="1966.99,164.54 1900.96,164.54 1867.94,221.72 1900.96,278.91 1966.99,278.91 2000,221.72 "/>
<polygon class="st0" points="99.04,109.17 33.01,109.17 0,166.36 33.01,223.54 99.04,223.54 132.06,166.36 "/>
<polygon class="st0" points="593.71,51.99 527.68,51.99 494.67,109.17 527.68,166.36 593.71,166.36 626.73,109.17 "/>
<polygon class="st0" points="884.16,109.17 818.13,109.17 785.12,166.36 818.13,223.54 884.16,223.54 917.17,166.36 "/>
<polygon class="st0" points="1082.03,109.17 1016,109.17 982.99,166.36 1016,223.54 1082.03,223.54 1115.04,166.36 "/>
<polygon class="st0" points="1180.96,51.99 1114.93,51.99 1081.92,109.17 1114.93,166.36 1180.96,166.36 1213.97,109.17 "/>
<polygon class="st0" points="1279.89,109.17 1213.87,109.17 1180.85,166.36 1213.87,223.54 1279.89,223.54 1312.91,166.36 "/>
<polygon class="st0" points="1771.84,51.99 1705.81,51.99 1672.8,109.17 1705.81,166.36 1771.84,166.36 1804.86,109.17 "/>
<polygon class="st0" points="1868.05,109.17 1802.02,109.17 1769.01,166.36 1802.02,223.54 1868.05,223.54 1901.07,166.36 "/>
</svg>
