<?xml version="1.0" encoding="utf-8"?>
<!DOCTYPE svg PUBLIC "-//W3C//DTD SVG 1.1//EN" "http://www.w3.org/Graphics/SVG/1.1/DTD/svg11.dtd">
<svg version="1.1" id="Layer_1" xmlns="http://www.w3.org/2000/svg" xmlns:xlink="http://www.w3.org/1999/xlink" x="0px" y="0px"
	 width="141.47px" height="128.936px" viewBox="0 0 141.47 128.936" enable-background="new 0 0 141.47 128.936"
	 xml:space="preserve">
<path fill="#333333" d="M136.603,111.053c-0.669-0.594-3.201-1.822-3.628-1.969c-0.42-1.537-1.357-3.014-2.292-4.299
	c-3.507-4.811-16.764-24.588-19.253-26.072c2.564-0.289,2.943-4.748,2.393-6.207c-0.018-0.037-12.416-20.736-36.405-39.223
	c1.922-3.535,4.655-8.793,7.562-11.346c9.283-8.167,20.877-13.125,32.028-18.148c4.904-2.622,5.416-4.298-1.321-3.649
	c-8.595,0.888-31.593,5.45-46.015,14.282c-6.713,4.551-11.359,11.881-14.173,19.915c-6.109,2.816-12.877,4.835-19.644,4.88
	c-13.168-0.065-16.043-10.231-16.221-11.861c-0.399,0.091-3.524,25.611,6.179,32.99c-5.09-0.785-18.972-15.108-25.479-27.582
	c-1.123,3.385-1.372,48.028,32.787,64.561c-3.673,4.643-18.863,1.521-22.638-2.018c10.04,16.291,20.062,27.678,50.04,27.904
	c0.562-0.051,14.696-2.326,18.47-1.949c4.992,0.496,25.882,2.596,29.225,2.402c0.27,0.098,7.54-0.961,10.276-1.803
	c0.767-0.236,1.557-0.5,2.357-0.779c0.268,0.764,0.614,1.52,1.021,2.236c2.488,4.379,8.212,6.684,13.041,5.135
	c0.225-0.072,1.258-0.35,1.391-0.545C143.857,124.475,142.402,115.54,136.603,111.053z M71.098,16.143
	C82.8,8.182,104.949,4.177,111.433,3.009C87.196,12.663,59.708,25.279,65.7,59.398c-2.951,0.252-8.216-2.078-10.149-4.356
	C57.137,30.212,64.71,20.8,71.098,16.143z M119.48,107.2c-1.132,1.891-3.654,3.059-5.423,4.199
	c-2.362,1.521-7.962,5.766-8.414,9.025c-10.556-1.004-21.33-2.969-31.941-2.645c-5.015,0.15-9.333,0.699-13.721-2.316
	c-4.692-3.225-7.478-11.592-6.261-17.268c-5.368,3.506-6.661,7.838-5.852,11.232c-7.861,6.451-23.807-1.023-25.55-5.873
	c7.887,1.963,13.039,0.588,15.179-3.828c2.137-4.418-1.901-7.713,1.766-12.514C27.198,84.723,6.524,72.086,5.292,46.789
	c0.809,0.91,14.768,19.42,25.315,20.135c0.038-5.952,2.878-9.705,4.989-11.769C21.574,52.054,22.132,40.699,22.6,38.812
	c10.145,7.161,25.593,3.625,31.125,1.689c-1.155,5.004-1.666,10.078-1.555,14.766c0.012,0.535,0.682,3.947,4.256,5.517
	c-9.159,0.44-19.104,2.815-19.184,3.238c-0.298,0.469,0.532,1.749,0.76,2.19c0.704,1.377,1.447,2.74,2.289,4.027
	c-2.808,0.512-5.452,2.115-4.713,5.418c0.706,3.16,4.076,5.613,7.081,6.301c3.621,0.828,8.2-0.727,9.214-4.645
	c1.242,0.084,2.487,0.074,3.697,0.02c0.039,0.021,5.047-0.537,4.736-1.227c0,0-2.154-6.367-1.879-6.605
	c-0.041-0.002-9.021-1.234-13.561-1.48c0.856,1.309,0.146,2.115-1.091,2.021c0.482,0.533,2.287,2.299,5.36,3.777
	c-0.002,0.039,0.166,0.457-0.166,1.098c-5.992-2.582-8.989-8.379-9.074-8.273c-0.164-0.318-0.329-0.637-0.488-0.949
	c0.326,0.129,13.094-3.239,21.672-0.593c0.132-0.066,1.729-1.661,0.824-2.304c10.329,0.986,16.789-6.734,13.455-13.69
	c-0.102-0.213-2.186-7.095-0.76-10.569c19.974,10.499,33.18,28.889,36.272,35.532c-3.552,8.861-31.308-3.516-30.637-2.822
	c0.207,0.213,16.378,14.902,22.418,10.502c-3.172,3.541-7.018,5.049-12.303,4.643c-4.749-0.363-13.271-8.027-13.636-7.393
	c-2.933,5.104-2.607,13.086,3.043,15.971c-0.045,0.049,11.256-3.58,15.886-5.912c3.878-1.953,7.173-4.721,10.077-7.902
	c3.556,5.676,8.892,9.963,12.344,15.732C119.775,99.745,121.346,104.086,119.48,107.2z M41.893,73.034
	c0.132-0.078,0.216-0.184,0.277-0.297c0.829,0.936,1.745,1.799,2.814,2.525c0.94,0.637,1.966,1.076,3.033,1.402
	c-0.016,0.014-0.025,0.029-0.043,0.041c-1.07,0.906-3.965,1.635-6.125,0.67C37.124,75.456,39.232,72.756,41.893,73.034z
	 M52.506,75.098c1.407,0.412,2.977,0.723,4.721,0.854c-1.77,0.264-3.394,0.219-4.886-0.041
	C52.422,75.645,52.478,75.372,52.506,75.098z M135.169,122.182c-2.72,1.662-7.057-0.717-8.434-3.715
	c1.865-1.074,3.562-2.375,4.869-3.982c0.094,0.059,0.207,0.1,0.354,0.098C135.605,114.526,139.026,119.825,135.169,122.182z"/>
</svg>