<?xml version="1.0" encoding="utf-8"?>
<!-- Generator: Adobe Illustrator 27.3.1, SVG Export Plug-In . SVG Version: 6.00 Build 0)  -->
<svg version="1.1" id="Layer_1" xmlns="http://www.w3.org/2000/svg" xmlns:xlink="http://www.w3.org/1999/xlink" x="0px" y="0px"
	 viewBox="0 0 350 350" style="enable-background:new 0 0 350 350;" xml:space="preserve">
<style type="text/css">
	.st0{fill:#FFFFFF;}
</style>
<path class="st0" d="M175-0.84c-96.65,0-175,78.35-175,175s78.35,175,175,175s175-78.35,175-175S271.65-0.84,175-0.84L175-0.84z
	 M173.28,288.41c-63.1-0.01-114.25-51.16-114.24-114.26S110.2,59.9,173.3,59.91c63.09,0.01,114.24,51.16,114.24,114.25
	C287.47,237.23,236.35,288.34,173.28,288.41z M173.28,70.2c-57.44,0-104,46.56-104,104s46.56,104,104,104s104-46.56,104-104
	C277.24,116.78,230.7,70.24,173.28,70.2z M264.35,146.88c1.97,5.93,3.25,12.06,3.82,18.28c0.27,2.94,0.42,5.9,0.53,7.39
	c-0.12,11.19-1.52,20.7-4.66,29.92c-4.23,12.45-10.92,23.93-19.68,33.74c-9.35,10.63-20.94,19.05-33.94,24.64
	c-6.4,2.71-13.05,4.8-19.85,6.22c-5.52,1.19-11.15,1.8-16.79,1.82c-6.73-0.06-13.44-0.86-20-2.38c-5.7-1.28-11.26-3.13-16.59-5.51
	c-7.48-3.12-14.54-7.17-21-12.06C107.2,242,99.4,233.65,93.1,224.2c-6.91-10.55-11.63-22.38-13.89-34.79
	c-1.29-6.95-1.66-14.04-1.1-21.08c0.86-13.85,4.91-27.31,11.83-39.33c7.36-13,17.6-24.15,29.93-32.58c9.21-6.28,19.4-11.01,30.14-14
	c6.09-1.63,12.33-2.6,18.63-2.9c9.01-0.45,18.05,0.41,26.81,2.58c5.61,1.47,11.08,3.45,16.34,5.9c5.57,2.37,10.87,5.33,15.81,8.83
	c11.59,8.14,21.25,18.72,28.3,31C259.34,133.88,262.18,140.26,264.35,146.88z"/>
<path class="st0" d="M95.15,177.81l11.68-6.75c1.2-0.7,2.73-0.29,3.43,0.91c0.22,0.39,0.34,0.82,0.34,1.27v13.49
	c0,1.39-1.12,2.51-2.51,2.51c-0.44,0-0.88-0.12-1.26-0.34l-11.68-6.74c-1.2-0.69-1.61-2.23-0.92-3.43
	C94.45,178.35,94.77,178.03,95.15,177.81z"/>
<path class="st0" d="M172.53,96.33l-6.32,11c-0.7,1.2-0.29,2.73,0.91,3.43c0.38,0.22,0.82,0.34,1.26,0.34h4.15L172.53,96.33z"/>
<path class="st0" d="M107.06,135.25l13.48,0.49c1.39,0.08,2.45,1.26,2.38,2.65c-0.02,0.42-0.15,0.84-0.38,1.2L115.41,151
	c-0.73,1.18-2.28,1.53-3.46,0.8c-0.38-0.24-0.68-0.57-0.89-0.96l-6.31-11.92c-0.65-1.22-0.18-2.73,1.04-3.38
	C106.18,135.33,106.62,135.23,107.06,135.25z"/>
<path class="st0" d="M133.56,247.56l11.92-6.31c1.23-0.65,1.7-2.16,1.05-3.39c-0.21-0.39-0.51-0.72-0.89-0.96l-11.42-7.17
	c-1.18-0.74-2.74-0.38-3.47,0.8c-0.22,0.36-0.35,0.77-0.38,1.2l-0.5,13.48c-0.08,1.38,0.99,2.57,2.37,2.64
	C132.7,247.88,133.15,247.78,133.56,247.56z"/>
<path class="st0" d="M132.44,110.22l11.87,6.4c1.22,0.65,1.68,2.18,1.03,3.4c-0.21,0.39-0.52,0.72-0.9,0.95L133,128.05
	c-1.18,0.73-2.73,0.37-3.46-0.81c-0.23-0.38-0.36-0.81-0.37-1.25l-0.4-13.48c-0.03-1.39,1.08-2.54,2.47-2.57
	C131.66,109.93,132.07,110.03,132.44,110.22z"/>
<path class="st0" d="M106.64,222.7l13.48-0.4c1.39-0.04,2.48-1.19,2.44-2.57c-0.01-0.44-0.14-0.88-0.37-1.26L115.1,207
	c-0.74-1.18-2.29-1.54-3.47-0.8c-0.37,0.23-0.67,0.55-0.88,0.93l-6.4,11.87c-0.65,1.23-0.18,2.75,1.05,3.41
	C105.78,222.61,106.21,222.71,106.64,222.7z"/>
<path class="st0" d="M252,176.87c0-5.6-14.35-6-18-6.05c3.04-2.5,5.79-5.34,8.21-8.45c1-1.3,3.9-5.27,1.83-7.8
	c-3.66-4.42-15.58,5.18-17.93,7.15c-3.59,2.9-6.76,6.3-9.4,10.09h-21.09l-5-8.75l10.79-18.42c5-0.13,11.54-2.36,13.38-3
	c2.88-1.05,17.14-6.54,15.22-12c-1.87-5.26-15.49-0.8-18.94,0.43c2.03-3.38,3.69-6.97,4.93-10.71c0.47-1.55,1.9-6.29-0.89-8
	s-6.21,1.88-7.33,3c-2.64,2.88-4.96,6.04-6.92,9.42c-0.6-3.77-3.07-17.8-8.67-16.92s-3.58,16.15-3.11,19.21
	c0.59,3.99,1.6,7.9,3,11.68l-11.25,19.21h-2.46v42.62h2.46L192,218.87c-1.43,3.77-2.43,7.69-3,11.68
	c-0.47,3.06-2.53,18.33,3.11,19.22h0.49c2.91,0,4.62-4.18,5.21-5.61c1.41-3.66,2.41-7.47,3-11.35c3.22,5.4,8.11,11.86,11.68,12.78
	c0.33,0.09,0.66,0.13,1,0.13c0.57,0,1.12-0.15,1.61-0.44c2.79-1.66,1.36-6.4,0.89-8c-1.23-3.75-2.87-7.35-4.88-10.74
	c2.22,0.79,8.69,2.94,13.52,2.94c2.63,0,4.76-0.65,5.42-2.5c1.93-5.43-12.34-10.9-15.22-12c-3.77-1.42-7.69-2.41-11.69-2.94
	c-0.4,0-1-0.1-1.71-0.13l-10.77-18.37l5.86-10.24h21.27c2.48,3.16,5.31,6.03,8.43,8.56c3.07,2.62,6.42,4.88,10,6.74
	c1.58,0.86,3.33,1.38,5.12,1.53c1.07,0.06,2.11-0.38,2.81-1.2c3.48-4.28-7.09-13.68-10-16.14C237.94,182.88,252,182.4,252,176.87z"
	/>
<path class="st0" d="M172.53,123.74c-30.29,1.29-53.79,26.9-52.5,57.18c1.22,28.47,24.02,51.28,52.5,52.5V123.74z"/>
<path class="st0" d="M172.53,243.4h-4.15c-1.39,0-2.51,1.12-2.51,2.51c0,0.44,0.12,0.88,0.34,1.26l6.32,11L172.53,243.4z"/>
</svg>
