<?xml version="1.0" encoding="utf-8"?>
<!-- Generator: Adobe Illustrator 27.3.1, SVG Export Plug-In . SVG Version: 6.00 Build 0)  -->
<svg version="1.1" id="Layer_1" xmlns="http://www.w3.org/2000/svg" xmlns:xlink="http://www.w3.org/1999/xlink" x="0px" y="0px"
	 viewBox="0 0 350 256.68" style="enable-background:new 0 0 350 256.68;" xml:space="preserve">
<style type="text/css">
	.st0{fill:#FFFFFF;}
</style>
<g id="Artwork_4">
	<path class="st0" d="M345.27,117.64c0,0-88.16-101.8-170.27-101.8S4.75,117.64,4.75,117.64c-5.91,5.34-6.36,14.46-1.02,20.37
		c0.32,0.36,0.66,0.7,1.02,1.02c0,0,88.15,101.81,170.25,101.81S345.27,139,345.27,139c5.91-5.37,6.34-14.52,0.96-20.43
		c-0.31-0.34-0.63-0.66-0.96-0.96V117.64z M175.79,210.32c-45.09-0.07-81.6-36.68-81.53-81.77s36.68-81.6,81.77-81.53
		c45.05,0.07,81.53,36.6,81.53,81.65C257.52,173.79,220.91,210.34,175.79,210.32L175.79,210.32z"/>
	<path class="st0" d="M174.84,75.87c-28.72-0.04-52.03,23.21-52.07,51.93s23.21,52.03,51.93,52.07s52.03-23.21,52.07-51.93
		c0-0.02,0-0.05,0-0.07C226.77,99.18,203.53,75.91,174.84,75.87z M190.41,159c-8.58-0.03-15.52-7.01-15.49-15.59
		c0.03-8.58,7.01-15.52,15.59-15.49c8.55,0.03,15.47,6.96,15.49,15.51c0.01,8.59-6.94,15.56-15.53,15.57
		C190.45,159,190.43,159,190.41,159z"/>
</g>
</svg>
